<svg version="1" xmlns="http://www.w3.org/2000/svg" width="802.667" height="802.667" viewBox="0 0 602.000000 602.000000"><path d="M158 300v153h63v-98.8c0-54.4.3-99.2.7-99.5.9-.9-.1-2.5 27.8 43.3 4.5 7.4 11.3 18.4 15 24.5 3.7 6 7.5 12.3 8.5 14 1 1.6 4.8 7.9 8.5 14 3.7 6 8 13 9.5 15.5s6.4 10.6 11 18 9.5 15.5 11 18 5.8 9.4 9.5 15.5c3.7 6 7.6 12.5 8.6 14.2 1 1.8 3.8 6.3 6.1 10 2.4 3.7 4.8 7.7 5.3 8.8 1 1.9 2.1 2 32.8 2.3l31.7.2V147l-31.2.2-31.3.3-.3 99.2c-.1 54.6-.6 99.3-1 99.3-.5 0-1.7-1.7-2.9-3.8-1.1-2-5-8.7-8.8-14.7-8.5-13.8-17.2-28.1-19.5-32-.9-1.7-3.8-6.3-6.3-10.3-2.6-4-4.7-7.4-4.7-7.7 0-.2-2.6-4.6-5.9-9.7-3.2-5.1-9.8-15.8-14.6-23.8-8.4-13.8-12.1-20-24.7-40.5-16.4-26.8-22.2-36.3-24-39.5-1.1-1.9-4-6.5-6.4-10.3L221 147h-63v153z"/></svg>